<svg width="14" height="14" viewBox="0 0 14 14" fill="none" xmlns="http://www.w3.org/2000/svg">
<path d="M7.61981 0.766992C7.48648 0.633659 7.27981 0.633659 7.14648 0.766992L5.80648 2.10699H8.95315L7.61981 0.766992ZM7.15314 13.2337C7.28648 13.367 7.49314 13.367 7.62648 13.2337L8.94648 11.9137H5.83981L7.15314 13.2337ZM6.31981 10.8203C6.71981 10.8203 6.99315 10.4203 6.84648 10.047L4.35981 3.68699C4.23981 3.38033 3.93981 3.18033 3.61315 3.18033C3.28648 3.18033 2.98648 3.38033 2.86648 3.68699L0.373145 10.0403C0.226478 10.4137 0.499812 10.8137 0.899812 10.8137C1.13315 10.8137 1.34648 10.667 1.43315 10.447L1.90648 9.18033H5.31315L5.78648 10.447C5.87315 10.6737 6.08648 10.8203 6.31981 10.8203ZM2.31315 8.09366L3.60648 4.64033L4.89981 8.09366H2.31315ZM13.0331 9.76032H9.47981L13.2931 4.23366C13.5998 3.79366 13.2798 3.18699 12.7465 3.18699H8.42648C8.13315 3.18699 7.89981 3.42699 7.89981 3.72033V3.72699C7.89981 4.02033 8.13981 4.26033 8.42648 4.26033H11.8198L7.99981 9.78032C7.69315 10.2203 8.01314 10.827 8.54648 10.827H13.0265C13.3198 10.827 13.5531 10.587 13.5531 10.3003C13.5665 10.0003 13.3265 9.76032 13.0331 9.76032Z" fill="#344054"/>
</svg>
