<svg width="21" height="16" viewBox="0 0 21 16" fill="none" xmlns="http://www.w3.org/2000/svg">
<g clip-path="url(#clip0_2504_19049)">
<mask id="mask0_2504_19049" style="mask-type:alpha" maskUnits="userSpaceOnUse" x="0" y="0" width="21" height="16">
<path d="M19 0.5H2C0.89543 0.5 0 1.39543 0 2.5V13.5C0 14.6046 0.89543 15.5 2 15.5H19C20.1046 15.5 21 14.6046 21 13.5V2.5C21 1.39543 20.1046 0.5 19 0.5Z" fill="white"/>
</mask>
<g mask="url(#mask0_2504_19049)">
<path d="M19 0.5H2C0.89543 0.5 0 1.39543 0 2.5V13.5C0 14.6046 0.89543 15.5 2 15.5H19C20.1046 15.5 21 14.6046 21 13.5V2.5C21 1.39543 20.1046 0.5 19 0.5Z" fill="#009C34"/>
<path fill-rule="evenodd" clip-rule="evenodd" d="M10.5 2.5L18 8L10.5 13.5L3 8" fill="#F8E23D"/>
<path d="M10.5 11.5C12.433 11.5 14 9.933 14 8C14 6.067 12.433 4.5 10.5 4.5C8.567 4.5 7 6.067 7 8C7 9.933 8.567 11.5 10.5 11.5Z" fill="#002478"/>
<path fill-rule="evenodd" clip-rule="evenodd" d="M9 9.5V10.5H10V9.5H9ZM11 9.5V10.5H12V9.5H11Z" fill="#91A1C3"/>
<path d="M8 6.5C8 6.5 10.264 6.9 11.896 7.598L14 8.5" stroke="#C9D0E0"/>
<path d="M19 1H2C1.17157 1 0.5 1.67157 0.5 2.5V13.5C0.5 14.3284 1.17157 15 2 15H19C19.8284 15 20.5 14.3284 20.5 13.5V2.5C20.5 1.67157 19.8284 1 19 1Z" stroke="black" stroke-opacity="0.1"/>
</g>
</g>
<defs>
<clipPath id="clip0_2504_19049">
<rect width="21" height="15" fill="white" transform="translate(0 0.5)"/>
</clipPath>
</defs>
</svg>
