<svg width="32" height="32" viewBox="0 0 32 32" fill="none" xmlns="http://www.w3.org/2000/svg">
<path d="M2.01795 11.1177L11.1157 2.01885C13.8071 -0.672949 18.1902 -0.672949 20.8843 2.01885L29.9821 11.1151C31.2821 12.4153 32 14.1515 32 16C32 17.8485 31.2847 19.5821 29.9821 20.8849L20.8843 29.9812C18.1902 32.673 13.8098 32.673 11.1157 29.9812L2.01795 20.8849C0.715288 19.5847 0 17.8485 0 16C0 14.1515 0.715288 12.4179 2.01795 11.1177ZM26.9799 14.1202L17.8822 5.02134C17.3836 4.52266 16.7153 4.24852 16 4.24852C15.2847 4.24852 14.6164 4.52266 14.1178 5.02134L5.02007 14.1202C4.52146 14.6189 4.24735 15.2872 4.24735 16.0026C4.24735 16.718 4.52146 17.3864 5.02007 17.885L14.1178 26.9813C14.6164 27.48 15.2847 27.7541 16 27.7541C16.7153 27.7541 17.3836 27.48 17.8822 26.9813L26.9799 17.885C27.4785 17.3864 27.7527 16.718 27.7527 16.0026C27.7527 15.2872 27.4785 14.6189 26.9799 14.1202Z" fill="url(#paint0_linear_2113_13744)"/>
<mask id="mask0_2113_13744" style="mask-type:alpha" maskUnits="userSpaceOnUse" x="0" y="0" width="32" height="32">
<path d="M2.01795 11.1177L11.1157 2.01885C13.8071 -0.672949 18.1902 -0.672949 20.8843 2.01885L29.9821 11.1151C31.2821 12.4153 32 14.1515 32 16C32 17.8485 31.2847 19.5821 29.9821 20.8849L20.8843 29.9812C18.1902 32.673 13.8098 32.673 11.1157 29.9812L2.01795 20.8849C0.715288 19.5847 0 17.8485 0 16C0 14.1515 0.715288 12.4179 2.01795 11.1177ZM26.9799 14.1202L17.8822 5.02134C17.3836 4.52266 16.7153 4.24852 16 4.24852C15.2847 4.24852 14.6164 4.52266 14.1178 5.02134L5.02007 14.1202C4.52146 14.6189 4.24735 15.2872 4.24735 16.0026C4.24735 16.718 4.52146 17.3864 5.02007 17.885L14.1178 26.9813C14.6164 27.48 15.2847 27.7541 16 27.7541C16.7153 27.7541 17.3836 27.48 17.8822 26.9813L26.9799 17.885C27.4785 17.3864 27.7527 16.718 27.7527 16.0026C27.7527 15.2872 27.4785 14.6189 26.9799 14.1202Z" fill="url(#paint1_linear_2113_13744)"/>
</mask>
<g mask="url(#mask0_2113_13744)">
<path d="M17.5689 27.2032L14.4258 30.3049C13.6923 31.0699 12.4888 31.1743 11.6586 30.5138C11.6508 30.5086 11.643 30.5007 11.6351 30.4955C11.6351 30.4955 10.2907 29.2867 9.82604 28.7489C9.58587 28.4721 8.36153 27.2502 7.22856 26.1249C6.21828 25.1224 6.48977 23.4253 7.76372 22.7883L7.88119 22.7308C8.68263 22.3314 9.64853 22.488 10.2803 23.1198L13.9168 26.7568C13.9168 26.7568 14.6451 27.634 15.7572 27.6967C16.8693 27.7593 17.5689 27.2032 17.5689 27.2032Z" fill="url(#paint2_linear_2113_13744)"/>
<path d="M15.17 4.40349L14.8435 4.50767L17.6158 1.69429C18.3442 0.931922 19.5424 0.827487 20.3647 1.48542C20.3726 1.49065 20.3804 1.49848 20.3882 1.5037C20.3882 1.5037 21.67 2.76736 22.1686 3.26864C22.4401 3.54278 23.641 4.73856 24.7661 5.85861C25.7712 6.85596 25.4997 8.5478 24.2362 9.18224L24.1213 9.23968C23.3251 9.63914 22.3644 9.48249 21.7222 8.88199L18.0727 5.30511C18.0727 5.30511 17.3992 4.35476 16.2975 4.2921C15.8217 4.26285 15.7834 4.24486 15.54 4.31098L15.17 4.40349Z" fill="url(#paint3_linear_2113_13744)"/>
</g>
<defs>
<linearGradient id="paint0_linear_2113_13744" x1="16.389" y1="31.9946" x2="15.6088" y2="0.00749937" gradientUnits="userSpaceOnUse">
<stop offset="0.00534759" stop-color="#8D65F5"/>
<stop offset="0.307292" stop-color="#6665F5"/>
<stop offset="0.9997" stop-color="#01D0FA"/>
</linearGradient>
<linearGradient id="paint1_linear_2113_13744" x1="15.999" y1="33.8987" x2="15.999" y2="1.89674" gradientUnits="userSpaceOnUse">
<stop stop-color="#8D65F5"/>
<stop offset="0.00828621" stop-color="#8A65F5"/>
<stop offset="0.0832" stop-color="#7665F5"/>
<stop offset="0.158" stop-color="#6A65F5"/>
<stop offset="0.2322" stop-color="#6665F5"/>
<stop offset="0.3772" stop-color="#4686F7"/>
<stop offset="0.547" stop-color="#28A6F8"/>
<stop offset="0.7111" stop-color="#13BDF9"/>
<stop offset="0.8653" stop-color="#05CBFA"/>
<stop offset="0.9997" stop-color="#01D0FA"/>
<stop offset="1" stop-color="#01D0FA"/>
</linearGradient>
<linearGradient id="paint2_linear_2113_13744" x1="15.6212" y1="29.9126" x2="7.76391" y2="22.0449" gradientUnits="userSpaceOnUse">
<stop stop-color="#2C2864"/>
<stop offset="1" stop-color="#4C81F7" stop-opacity="0"/>
</linearGradient>
<linearGradient id="paint3_linear_2113_13744" x1="16.1589" y1="1.60328" x2="23.9564" y2="9.41119" gradientUnits="userSpaceOnUse">
<stop stop-color="#005567"/>
<stop offset="1" stop-color="#09C8FA" stop-opacity="0"/>
</linearGradient>
</defs>
</svg>
