<svg width="14" height="10" viewBox="0 0 14 10" fill="none" xmlns="http://www.w3.org/2000/svg">
<path d="M4.99998 0.333984C3.7623 0.333984 2.57532 0.82565 1.70015 1.70082C0.824978 2.57599 0.333313 3.76297 0.333313 5.00065C0.333313 6.23833 0.824978 7.42531 1.70015 8.30048C2.57532 9.17565 3.7623 9.66732 4.99998 9.66732C5.69331 9.66732 6.37331 9.50732 6.99998 9.21398C7.62665 9.50732 8.30665 9.66732 8.99998 9.66732C10.2377 9.66732 11.4246 9.17565 12.2998 8.30048C13.175 7.42531 13.6666 6.23833 13.6666 5.00065C13.6666 3.76297 13.175 2.57599 12.2998 1.70082C11.4246 0.82565 10.2377 0.333984 8.99998 0.333984C8.30665 0.333984 7.62665 0.493984 6.99998 0.787318C6.37331 0.493984 5.69331 0.333984 4.99998 0.333984ZM4.99998 1.66732C5.22665 1.66732 5.44665 1.68732 5.66665 1.73398C4.81331 2.60732 4.33331 3.78065 4.33331 5.00065C4.33331 6.22065 4.81331 7.39398 5.66665 8.26065C5.44665 8.30732 5.22665 8.33398 4.99998 8.33398C4.11592 8.33398 3.26808 7.9828 2.64296 7.35767C2.01784 6.73255 1.66665 5.88471 1.66665 5.00065C1.66665 4.1166 2.01784 3.26875 2.64296 2.64363C3.26808 2.01851 4.11592 1.66732 4.99998 1.66732ZM8.99998 1.66732C9.88404 1.66732 10.7319 2.01851 11.357 2.64363C11.9821 3.26875 12.3333 4.1166 12.3333 5.00065C12.3333 5.88471 11.9821 6.73255 11.357 7.35767C10.7319 7.9828 9.88404 8.33398 8.99998 8.33398C8.77331 8.33398 8.55331 8.31398 8.33331 8.26732C9.18665 7.39398 9.66665 6.22065 9.66665 5.00065C9.66665 3.78065 9.18665 2.60732 8.33331 1.74065C8.55331 1.69398 8.77331 1.66732 8.99998 1.66732Z" fill="#313854"/>
</svg>
