<svg width="17" height="17" viewBox="0 0 17 17" fill="none" xmlns="http://www.w3.org/2000/svg">
<path fill-rule="evenodd" clip-rule="evenodd" d="M14.4701 0.0162811C15.8508 0.0162811 16.9701 1.13557 16.9701 2.51628V14.1829C16.9701 15.5637 15.8508 16.6829 14.4701 16.6829H2.80347C1.42276 16.6829 0.303467 15.5637 0.303467 14.1829V2.51628C0.303467 1.13557 1.42276 0.0162811 2.80347 0.0162811H14.4701ZM15.3035 5.01628H1.97013V14.1829C1.97013 14.6432 2.34323 15.0163 2.80347 15.0163H14.4701C14.9304 15.0163 15.3035 14.6432 15.3035 14.1829V5.01628ZM14.4701 1.68295H2.80347C2.34323 1.68295 1.97013 2.05604 1.97013 2.51628V3.34961H15.3035V2.51628C15.3035 2.05604 14.9304 1.68295 14.4701 1.68295Z" fill="#FBFAFF"/>
<path d="M14.4701 1.68295H2.80347C2.34323 1.68295 1.97013 2.05604 1.97013 2.51628V3.34961H15.3035V2.51628C15.3035 2.05604 14.9304 1.68295 14.4701 1.68295Z" fill="#FBFAFF"/>
</svg>
