<svg width="13" height="16" viewBox="0 0 13 16" fill="none" xmlns="http://www.w3.org/2000/svg">
<path d="M9.00016 0.666626H1.66683C0.933496 0.666626 0.333496 1.26663 0.333496 1.99996V10.6666C0.333496 11.0333 0.633496 11.3333 1.00016 11.3333C1.36683 11.3333 1.66683 11.0333 1.66683 10.6666V2.66663C1.66683 2.29996 1.96683 1.99996 2.3335 1.99996H9.00016C9.36683 1.99996 9.66683 1.69996 9.66683 1.33329C9.66683 0.966626 9.36683 0.666626 9.00016 0.666626ZM11.6668 3.33329H4.3335C3.60016 3.33329 3.00016 3.93329 3.00016 4.66663V14C3.00016 14.7333 3.60016 15.3333 4.3335 15.3333H11.6668C12.4002 15.3333 13.0002 14.7333 13.0002 14V4.66663C13.0002 3.93329 12.4002 3.33329 11.6668 3.33329ZM11.0002 14H5.00016C4.6335 14 4.3335 13.7 4.3335 13.3333V5.33329C4.3335 4.96663 4.6335 4.66663 5.00016 4.66663H11.0002C11.3668 4.66663 11.6668 4.96663 11.6668 5.33329V13.3333C11.6668 13.7 11.3668 14 11.0002 14Z" fill="#313854"/>
</svg>
