<svg width="16" height="17" viewBox="0 0 16 17" fill="none" xmlns="http://www.w3.org/2000/svg">
<path d="M15.5 12.0902C15.5 12.4068 15.325 12.6818 15.0583 12.8235L8.475 16.5235C8.34167 16.6235 8.175 16.6735 8 16.6735C7.825 16.6735 7.65833 16.6235 7.525 16.5235L0.941667 12.8235C0.675 12.6818 0.5 12.4068 0.5 12.0902V4.59017C0.5 4.2735 0.675 3.9985 0.941667 3.85684L7.525 0.156836C7.65833 0.056836 7.825 0.00683594 8 0.00683594C8.175 0.00683594 8.34167 0.056836 8.475 0.156836L15.0583 3.85684C15.325 3.9985 15.5 4.2735 15.5 4.59017V12.0902ZM8 1.7985L3.03333 4.59017L8 7.38184L12.9667 4.59017L8 1.7985ZM2.16667 11.5985L7.16667 14.4152V8.8235L2.16667 6.01517V11.5985ZM13.8333 11.5985V6.01517L8.83333 8.8235V14.4152L13.8333 11.5985Z" fill="#313854"/>
</svg>
