<svg width="14" height="14" viewBox="0 0 14 14" fill="none" xmlns="http://www.w3.org/2000/svg">
<path d="M5.42682 4.09328C5.62016 3.67995 5.70682 3.20661 5.65349 2.69995C5.52682 1.54661 4.62682 0.566614 3.48016 0.37328C1.63349 0.0532802 0.0534893 1.63328 0.373489 3.47328C0.573489 4.61995 1.54682 5.51995 2.70016 5.64661C3.20682 5.69995 3.67349 5.61328 4.09349 5.41995L5.66682 6.99995L4.09349 8.57328C3.68016 8.37995 3.20682 8.29328 2.70016 8.34661C1.54682 8.47328 0.566823 9.37328 0.373489 10.5199C0.0534893 12.3666 1.63349 13.9399 3.47349 13.6199C4.62016 13.4199 5.52016 12.4466 5.64682 11.2933C5.70016 10.7866 5.61349 10.3199 5.42016 9.89995L7.00016 8.33328L12.0602 13.3933C12.6535 13.9866 13.6668 13.5666 13.6668 12.7266V12.7199C13.6668 12.4733 13.5668 12.2333 13.3935 12.0533L5.42682 4.09328ZM3.00016 4.33328C2.26682 4.33328 1.66682 3.73995 1.66682 2.99995C1.66682 2.25995 2.26682 1.66661 3.00016 1.66661C3.73349 1.66661 4.33349 2.25995 4.33349 2.99995C4.33349 3.73995 3.73349 4.33328 3.00016 4.33328ZM3.00016 12.3333C2.26682 12.3333 1.66682 11.7399 1.66682 10.9999C1.66682 10.2599 2.26682 9.66661 3.00016 9.66661C3.73349 9.66661 4.33349 10.2599 4.33349 10.9999C4.33349 11.7399 3.73349 12.3333 3.00016 12.3333ZM7.00016 7.33328C6.81349 7.33328 6.66682 7.18661 6.66682 6.99995C6.66682 6.81328 6.81349 6.66661 7.00016 6.66661C7.18682 6.66661 7.33349 6.81328 7.33349 6.99995C7.33349 7.18661 7.18682 7.33328 7.00016 7.33328ZM12.0602 0.606614L7.66682 4.99995L9.00016 6.33328L13.3935 1.93995C13.5668 1.76661 13.6668 1.52661 13.6668 1.27328V1.26661C13.6668 0.43328 12.6535 0.0132803 12.0602 0.606614Z" fill="#313854"/>
</svg>
