<svg width="16" height="16" viewBox="0 0 16 16" fill="none" xmlns="http://www.w3.org/2000/svg">
<path d="M8 5.5H11.3333C11.7917 5.5 12.1667 5.125 12.1667 4.66667C12.1667 4.20833 11.7917 3.83333 11.3333 3.83333H8C7.54167 3.83333 7.16667 4.20833 7.16667 4.66667C7.16667 5.125 7.54167 5.5 8 5.5ZM8 8.83333H11.3333C11.7917 8.83333 12.1667 8.45833 12.1667 8C12.1667 7.54167 11.7917 7.16667 11.3333 7.16667H8C7.54167 7.16667 7.16667 7.54167 7.16667 8C7.16667 8.45833 7.54167 8.83333 8 8.83333ZM8 12.1667H11.3333C11.7917 12.1667 12.1667 11.7917 12.1667 11.3333C12.1667 10.875 11.7917 10.5 11.3333 10.5H8C7.54167 10.5 7.16667 10.875 7.16667 11.3333C7.16667 11.7917 7.54167 12.1667 8 12.1667ZM3.83333 3.83333H5.5V5.5H3.83333V3.83333ZM3.83333 7.16667H5.5V8.83333H3.83333V7.16667ZM3.83333 10.5H5.5V12.1667H3.83333V10.5ZM14.6667 0.5H1.33333C0.875 0.5 0.5 0.875 0.5 1.33333V14.6667C0.5 15.125 0.875 15.5 1.33333 15.5H14.6667C15.125 15.5 15.5 15.125 15.5 14.6667V1.33333C15.5 0.875 15.125 0.5 14.6667 0.5ZM13.8333 13.8333H2.16667V2.16667H13.8333V13.8333Z" fill="#313854"/>
</svg>
