<svg width="27" height="28" viewBox="0 0 27 28" fill="none" xmlns="http://www.w3.org/2000/svg">
<rect y="0.848633" width="26.3027" height="26.3027" rx="13.1514" fill="#F5F3FF"/>
<path d="M18.8405 10.9496L19.443 9.61505L20.7775 9.01259C21.0749 8.87532 21.0749 8.45588 20.7775 8.31861L19.443 7.71614L18.8405 6.37394C18.7032 6.07652 18.2838 6.07652 18.1465 6.37394L17.544 7.70852L16.2018 8.31098C15.9044 8.44825 15.9044 8.86769 16.2018 9.00496L17.5364 9.60743L18.1389 10.9496C18.2762 11.247 18.7032 11.247 18.8405 10.9496ZM12.7701 12.0935L11.5575 9.4244C11.2906 8.82956 10.4365 8.82956 10.1696 9.4244L8.95701 12.0935L6.28786 13.3061C5.69303 13.5806 5.69303 14.4271 6.28786 14.6941L8.95701 15.9066L10.1696 18.5758C10.4441 19.1706 11.2906 19.1706 11.5575 18.5758L12.7701 15.9066L15.4392 14.6941C16.0341 14.4195 16.0341 13.573 15.4392 13.3061L12.7701 12.0935ZM18.1389 17.0505L17.5364 18.3851L16.2018 18.9876C15.9044 19.1248 15.9044 19.5443 16.2018 19.6816L17.5364 20.284L18.1389 21.6262C18.2762 21.9236 18.6956 21.9236 18.8329 21.6262L19.4353 20.2916L20.7775 19.6892C21.0749 19.5519 21.0749 19.1325 20.7775 18.9952L19.443 18.3927L18.8405 17.0505C18.7032 16.7531 18.2762 16.7531 18.1389 17.0505Z" fill="#875BF7"/>
</svg>
