<svg width="14" height="14" viewBox="0 0 14 14" fill="none" xmlns="http://www.w3.org/2000/svg">
<g clip-path="url(#clip0_2315_15618)">
<path d="M3.27982 8.60446H2.71844C2.42068 8.60446 2.1351 8.48617 1.92455 8.27562C1.71399 8.06506 1.5957 7.77949 1.5957 7.48172V2.42938C1.5957 2.13161 1.71399 1.84604 1.92455 1.63548C2.1351 1.42493 2.42068 1.30664 2.71844 1.30664H7.77078C8.06855 1.30664 8.35412 1.42493 8.56468 1.63548C8.77523 1.84604 8.89352 2.13161 8.89352 2.42938V2.99075M6.64804 5.23624H11.7004C12.3204 5.23624 12.8231 5.7389 12.8231 6.35898V11.4113C12.8231 12.0314 12.3204 12.5341 11.7004 12.5341H6.64804C6.02797 12.5341 5.5253 12.0314 5.5253 11.4113V6.35898C5.5253 5.7389 6.02797 5.23624 6.64804 5.23624Z" stroke="#4A4A4A" stroke-width="1.26308" stroke-linecap="round" stroke-linejoin="round"/>
</g>
<defs>
<clipPath id="clip0_2315_15618">
<rect width="13.4729" height="13.4729" fill="white" transform="translate(0.472656 0.184082)"/>
</clipPath>
</defs>
</svg>
