<svg width="10" height="14" viewBox="0 0 10 14" fill="none" xmlns="http://www.w3.org/2000/svg">
<path d="M4.16665 11.9997C4.16665 12.9163 3.41665 13.6663 2.49998 13.6663C1.58331 13.6663 0.833313 12.9163 0.833313 11.9997C0.833313 11.083 1.58331 10.333 2.49998 10.333C3.41665 10.333 4.16665 11.083 4.16665 11.9997ZM2.49998 5.33301C1.58331 5.33301 0.833313 6.08301 0.833313 6.99967C0.833313 7.91634 1.58331 8.66634 2.49998 8.66634C3.41665 8.66634 4.16665 7.91634 4.16665 6.99967C4.16665 6.08301 3.41665 5.33301 2.49998 5.33301ZM2.49998 0.333008C1.58331 0.333008 0.833313 1.08301 0.833313 1.99967C0.833313 2.91634 1.58331 3.66634 2.49998 3.66634C3.41665 3.66634 4.16665 2.91634 4.16665 1.99967C4.16665 1.08301 3.41665 0.333008 2.49998 0.333008ZM7.49998 3.66634C8.41665 3.66634 9.16665 2.91634 9.16665 1.99967C9.16665 1.08301 8.41665 0.333008 7.49998 0.333008C6.58331 0.333008 5.83331 1.08301 5.83331 1.99967C5.83331 2.91634 6.58331 3.66634 7.49998 3.66634ZM7.49998 5.33301C6.58331 5.33301 5.83331 6.08301 5.83331 6.99967C5.83331 7.91634 6.58331 8.66634 7.49998 8.66634C8.41665 8.66634 9.16665 7.91634 9.16665 6.99967C9.16665 6.08301 8.41665 5.33301 7.49998 5.33301ZM7.49998 10.333C6.58331 10.333 5.83331 11.083 5.83331 11.9997C5.83331 12.9163 6.58331 13.6663 7.49998 13.6663C8.41665 13.6663 9.16665 12.9163 9.16665 11.9997C9.16665 11.083 8.41665 10.333 7.49998 10.333Z" fill="#C7CBDD"/>
</svg>
