<svg width="14" height="14" viewBox="0 0 14 14" fill="none" xmlns="http://www.w3.org/2000/svg">
<path d="M11.9733 4.33331L12.5 3.16664L13.6667 2.63997C13.9267 2.51997 13.9267 2.15331 13.6667 2.03331L12.5 1.50664L11.9733 0.333306C11.8533 0.0733057 11.4867 0.0733057 11.3667 0.333306L10.84 1.49997L9.66665 2.02664C9.40665 2.14664 9.40665 2.51331 9.66665 2.63331L10.8333 3.15997L11.36 4.33331C11.48 4.59331 11.8533 4.59331 11.9733 4.33331ZM6.66665 5.33331L5.60665 2.99997C5.37332 2.47997 4.62665 2.47997 4.39332 2.99997L3.33332 5.33331L0.999985 6.39331C0.479985 6.63331 0.479985 7.3733 0.999985 7.60664L3.33332 8.66664L4.39332 11C4.63332 11.52 5.37332 11.52 5.60665 11L6.66665 8.66664L8.99999 7.60664C9.51999 7.36664 9.51999 6.62664 8.99999 6.39331L6.66665 5.33331ZM11.36 9.66664L10.8333 10.8333L9.66665 11.36C9.40665 11.48 9.40665 11.8466 9.66665 11.9666L10.8333 12.4933L11.36 13.6666C11.48 13.9266 11.8467 13.9266 11.9667 13.6666L12.4933 12.5L13.6667 11.9733C13.9267 11.8533 13.9267 11.4866 13.6667 11.3666L12.5 10.84L11.9733 9.66664C11.8533 9.40664 11.48 9.40664 11.36 9.66664Z" fill="#313854"/>
</svg>
