<svg width="12" height="12" viewBox="0 0 12 12" fill="none" xmlns="http://www.w3.org/2000/svg">
<path d="M8.33326 7.33338H7.8066L7.61993 7.15338C8.41993 6.22005 8.83326 4.94672 8.6066 3.59338C8.29326 1.74005 6.7466 0.260051 4.87993 0.0333842C2.05993 -0.313282 -0.313405 2.06005 0.0332621 4.88005C0.259929 6.74672 1.73993 8.29338 3.59326 8.60672C4.9466 8.83338 6.21993 8.42005 7.15326 7.62005L7.33326 7.80672V8.33338L10.1666 11.1667C10.4399 11.4401 10.8866 11.4401 11.1599 11.1667C11.4333 10.8934 11.4333 10.4467 11.1599 10.1734L8.33326 7.33338ZM4.33326 7.33338C2.67326 7.33338 1.33326 5.99338 1.33326 4.33338C1.33326 2.67338 2.67326 1.33338 4.33326 1.33338C5.99326 1.33338 7.33326 2.67338 7.33326 4.33338C7.33326 5.99338 5.99326 7.33338 4.33326 7.33338Z" fill="#313854"/>
</svg>
