<svg width="14" height="12" viewBox="0 0 14 12" fill="none" xmlns="http://www.w3.org/2000/svg">
<path d="M12.3333 2.00008H6.99998L6.05998 1.06008C5.80665 0.806748 5.46665 0.666748 5.11331 0.666748H1.66665C0.933313 0.666748 0.33998 1.26675 0.33998 2.00008L0.333313 10.0001C0.333313 10.7334 0.933313 11.3334 1.66665 11.3334H12.3333C13.0666 11.3334 13.6666 10.7334 13.6666 10.0001V3.33341C13.6666 2.60008 13.0666 2.00008 12.3333 2.00008ZM11.6666 10.0001H2.33331C1.96665 10.0001 1.66665 9.70008 1.66665 9.33341V4.00008C1.66665 3.63341 1.96665 3.33341 2.33331 3.33341H11.6666C12.0333 3.33341 12.3333 3.63341 12.3333 4.00008V9.33341C12.3333 9.70008 12.0333 10.0001 11.6666 10.0001Z" fill="#313854"/>
</svg>
