<svg width="12" height="10" viewBox="0 0 12 10" fill="none" xmlns="http://www.w3.org/2000/svg">
<path d="M10.6666 1.49992H5.99996L5.17746 0.677419C4.95579 0.455752 4.65829 0.333252 4.34913 0.333252H1.33329C0.691626 0.333252 0.172459 0.858252 0.172459 1.49992L0.166626 8.49992C0.166626 9.14159 0.691626 9.66659 1.33329 9.66659H10.6666C11.3083 9.66659 11.8333 9.14159 11.8333 8.49992V2.66659C11.8333 2.02492 11.3083 1.49992 10.6666 1.49992ZM10.0833 8.49992H1.91663C1.59579 8.49992 1.33329 8.23742 1.33329 7.91659V3.24992C1.33329 2.92909 1.59579 2.66659 1.91663 2.66659H10.0833C10.4041 2.66659 10.6666 2.92909 10.6666 3.24992V7.91659C10.6666 8.23742 10.4041 8.49992 10.0833 8.49992Z" fill="#2E90FA"/>
</svg>
