<svg width="18" height="14" viewBox="0 0 18 14" fill="none" xmlns="http://www.w3.org/2000/svg">
<path d="M15.6667 1.99967H9.00002L7.82502 0.824675C7.50835 0.508008 7.08335 0.333008 6.64169 0.333008H2.33335C1.41669 0.333008 0.67502 1.08301 0.67502 1.99967L0.666687 11.9997C0.666687 12.9163 1.41669 13.6663 2.33335 13.6663H15.6667C16.5834 13.6663 17.3334 12.9163 17.3334 11.9997V3.66634C17.3334 2.74967 16.5834 1.99967 15.6667 1.99967ZM14.8334 11.9997H3.16669C2.70835 11.9997 2.33335 11.6247 2.33335 11.1663V4.49967C2.33335 4.04134 2.70835 3.66634 3.16669 3.66634H14.8334C15.2917 3.66634 15.6667 4.04134 15.6667 4.49967V11.1663C15.6667 11.6247 15.2917 11.9997 14.8334 11.9997Z" fill="#EFF1F7"/>
</svg>
