<svg width="25" height="25" viewBox="0 0 25 25" fill="none" xmlns="http://www.w3.org/2000/svg">
<g clip-path="url(#clip0_247_1261)">
<path d="M24.4989 12.6473C24.4989 11.8316 24.4328 11.0115 24.2917 10.209H12.9729V14.83H19.4546C19.1857 16.3203 18.3214 17.6387 17.056 18.4765V21.4748H20.9229C23.1938 19.3848 24.4989 16.2983 24.4989 12.6473Z" fill="#4285F4"/>
<path d="M12.973 24.3724C16.2095 24.3724 18.9388 23.3098 20.9275 21.4755L17.0605 18.4771C15.9846 19.2091 14.5956 19.6236 12.9774 19.6236C9.8468 19.6236 7.19237 17.5115 6.23996 14.6719H2.24951V17.7628C4.28662 21.815 8.43581 24.3724 12.973 24.3724Z" fill="#34A853"/>
<path d="M6.23544 14.6718C5.73278 13.1814 5.73278 11.5676 6.23544 10.0773V6.98633H2.2494C0.5474 10.3771 0.5474 14.372 2.2494 17.7627L6.23544 14.6718Z" fill="#FBBC04"/>
<path d="M12.973 5.12075C14.6838 5.0943 16.3373 5.73806 17.5764 6.91976L21.0024 3.49371C18.833 1.4566 15.9537 0.336628 12.973 0.371902C8.43581 0.371902 4.28662 2.92932 2.24951 6.9859L6.23555 10.0768C7.18356 7.23282 9.84238 5.12075 12.973 5.12075Z" fill="#EA4335"/>
</g>
<defs>
<clipPath id="clip0_247_1261">
<rect width="24" height="24" fill="white" transform="translate(0.73291 0.371094)"/>
</clipPath>
</defs>
</svg>
