<svg width="16" height="14" viewBox="0 0 16 14" fill="none" xmlns="http://www.w3.org/2000/svg">
<path d="M7.99984 3.33378C9.83984 3.33378 11.3332 4.82711 11.3332 6.66711C11.3332 7.00711 11.2665 7.33378 11.1732 7.64044L13.2132 9.68044C14.1398 8.86044 14.8732 7.83378 15.3332 6.66044C14.1798 3.74044 11.3332 1.66711 7.99984 1.66711C7.15317 1.66711 6.33984 1.80044 5.57317 2.04711L7.01984 3.49378C7.33317 3.40044 7.65984 3.33378 7.99984 3.33378ZM1.8065 1.10711C1.5465 1.36711 1.5465 1.78711 1.8065 2.04711L3.11984 3.36044C2.03984 4.22044 1.17984 5.35378 0.666504 6.66711C1.81984 9.59377 4.6665 11.6671 7.99984 11.6671C9.01317 11.6671 9.97984 11.4671 10.8732 11.1204L12.6865 12.9338C12.9465 13.1938 13.3665 13.1938 13.6265 12.9338C13.8865 12.6738 13.8865 12.2538 13.6265 11.9938L2.75317 1.10711C2.49317 0.847109 2.0665 0.847109 1.8065 1.10711ZM7.99984 10.0004C6.15984 10.0004 4.6665 8.50711 4.6665 6.66711C4.6665 6.15378 4.7865 5.66711 4.99317 5.24044L6.03984 6.28711C6.01984 6.40711 5.99984 6.53378 5.99984 6.66711C5.99984 7.77378 6.89317 8.66711 7.99984 8.66711C8.13317 8.66711 8.25317 8.64711 8.37984 8.62044L9.4265 9.66711C8.99317 9.88044 8.51317 10.0004 7.99984 10.0004ZM9.97984 6.44711C9.87984 5.51378 9.1465 4.78711 8.21984 4.68711L9.97984 6.44711Z" fill="#313854"/>
</svg>
