<svg width="20" height="20" viewBox="0 0 20 20" fill="none" xmlns="http://www.w3.org/2000/svg">
<g clip-path="url(#clip0_701_140944)">
<path d="M4.875 19.1667C4.20833 19.1667 3.64583 18.9375 3.1875 18.4792C2.72917 18.0208 2.5 17.4583 2.5 16.7917C2.5 16.125 2.72917 15.5625 3.1875 15.1042C3.64583 14.6458 4.20833 14.4167 4.875 14.4167C5.06944 14.4167 5.23958 14.434 5.38542 14.4687C5.53125 14.5035 5.68056 14.5556 5.83333 14.625L7.60417 12.4167C7.34028 12.0972 7.13889 11.7326 7 11.3229C6.86111 10.9132 6.82639 10.4861 6.89583 10.0417L4.375 9.1875C4.16667 9.53472 3.89236 9.80556 3.55208 10C3.21181 10.1944 2.81944 10.2917 2.375 10.2917C1.70833 10.2917 1.14583 10.0625 0.6875 9.60417C0.229167 9.14583 0 8.58333 0 7.91667C0 7.25 0.229167 6.6875 0.6875 6.22917C1.14583 5.77083 1.70833 5.54167 2.375 5.54167C3.04167 5.54167 3.60417 5.77083 4.0625 6.22917C4.52083 6.6875 4.75 7.25 4.75 7.91667V8L7.29167 8.875C7.54167 8.43056 7.84375 8.09028 8.19792 7.85417C8.55208 7.61806 8.94444 7.45139 9.375 7.35417V4.66667C8.83333 4.51389 8.40625 4.21528 8.09375 3.77083C7.78125 3.32639 7.625 2.86111 7.625 2.375C7.625 1.70833 7.85417 1.14583 8.3125 0.6875C8.77083 0.229167 9.33333 0 10 0C10.6667 0 11.2292 0.229167 11.6875 0.6875C12.1458 1.14583 12.375 1.70833 12.375 2.375C12.375 2.86111 12.2153 3.32639 11.8958 3.77083C11.5764 4.21528 11.1528 4.51389 10.625 4.66667V7.35417C11.0556 7.45139 11.4514 7.61806 11.8125 7.85417C12.1736 8.09028 12.4792 8.43056 12.7292 8.875L15.25 8V7.91667C15.25 7.25 15.4792 6.6875 15.9375 6.22917C16.3958 5.77083 16.9583 5.54167 17.625 5.54167C18.2917 5.54167 18.8542 5.77083 19.3125 6.22917C19.7708 6.6875 20 7.25 20 7.91667C20 8.58333 19.7708 9.14583 19.3125 9.60417C18.8542 10.0625 18.2917 10.2917 17.625 10.2917C17.1806 10.2917 16.7847 10.1944 16.4375 10C16.0903 9.80556 15.8194 9.53472 15.625 9.1875L13.1042 10.0417C13.1736 10.4861 13.1424 10.9132 13.0104 11.3229C12.8785 11.7326 12.6736 12.0972 12.3958 12.4167L14.1667 14.625C14.3194 14.5556 14.4688 14.5035 14.6146 14.4687C14.7604 14.434 14.9306 14.4167 15.125 14.4167C15.7917 14.4167 16.3542 14.6458 16.8125 15.1042C17.2708 15.5625 17.5 16.125 17.5 16.7917C17.5 17.4583 17.2708 18.0208 16.8125 18.4792C16.3542 18.9375 15.7917 19.1667 15.125 19.1667C14.4583 19.1667 13.8958 18.9375 13.4375 18.4792C12.9792 18.0208 12.75 17.4583 12.75 16.7917C12.75 16.5139 12.7882 16.2639 12.8646 16.0417C12.941 15.8194 13.0486 15.6042 13.1875 15.3958L11.4167 13.1875C10.9722 13.4236 10.4965 13.5417 9.98958 13.5417C9.48264 13.5417 9.00694 13.4236 8.5625 13.1875L6.8125 15.4167C6.95139 15.625 7.05903 15.8368 7.13542 16.0521C7.21181 16.2674 7.25 16.5139 7.25 16.7917C7.25 17.4583 7.02083 18.0208 6.5625 18.4792C6.10417 18.9375 5.54167 19.1667 4.875 19.1667Z" fill="white"/>
</g>
<defs>
<clipPath id="clip0_701_140944">
<rect width="20" height="20" fill="white"/>
</clipPath>
</defs>
</svg>
