<svg width="14" height="14" viewBox="0 0 14 14" fill="none" xmlns="http://www.w3.org/2000/svg">
<path fill-rule="evenodd" clip-rule="evenodd" d="M2.33331 1.66659C1.96512 1.66659 1.66665 1.96506 1.66665 2.33325V4.33325H12.3333V2.33325C12.3333 1.96506 12.0348 1.66659 11.6666 1.66659H2.33331ZM13.6666 2.33325C13.6666 1.22868 12.7712 0.333252 11.6666 0.333252H2.33331C1.22874 0.333252 0.333313 1.22868 0.333313 2.33325V11.6666C0.333313 12.7712 1.22874 13.6666 2.33331 13.6666H11.6666C12.7712 13.6666 13.6666 12.7712 13.6666 11.6666V2.33325ZM12.3333 5.66659H5.66665V12.3333H11.6666C12.0348 12.3333 12.3333 12.0348 12.3333 11.6666V5.66659ZM4.33331 12.3333V5.66659H1.66665V11.6666C1.66665 12.0348 1.96512 12.3333 2.33331 12.3333H4.33331Z" fill="#313854"/>
</svg>
