<svg width="18" height="18" viewBox="0 0 18 18" fill="none" xmlns="http://www.w3.org/2000/svg">
<path fill-rule="evenodd" clip-rule="evenodd" d="M3.16669 2.33366C2.70645 2.33366 2.33335 2.70675 2.33335 3.16699V5.66699H15.6667V3.16699C15.6667 2.70675 15.2936 2.33366 14.8334 2.33366H3.16669ZM17.3334 3.16699C17.3334 1.78628 16.2141 0.666992 14.8334 0.666992H3.16669C1.78598 0.666992 0.666687 1.78628 0.666687 3.16699V14.8337C0.666687 16.2144 1.78598 17.3337 3.16669 17.3337H14.8334C16.2141 17.3337 17.3334 16.2144 17.3334 14.8337V3.16699ZM15.6667 7.33366H7.33335V15.667H14.8334C15.2936 15.667 15.6667 15.2939 15.6667 14.8337V7.33366ZM5.66669 15.667V7.33366H2.33335V14.8337C2.33335 15.2939 2.70645 15.667 3.16669 15.667H5.66669Z" fill="#EFF1F7"/>
</svg>
