<svg width="88" height="31" viewBox="0 0 88 31" fill="none" xmlns="http://www.w3.org/2000/svg">
<path d="M3.76122 11.6095L10.0791 5.29089C11.9482 3.42159 14.992 3.42159 16.8629 5.29089L23.1807 11.6077C24.0835 12.5106 24.5821 13.7164 24.5821 15C24.5821 16.2837 24.0854 17.4876 23.1807 18.3923L16.8629 24.7092C14.992 26.5785 11.95 26.5785 10.0791 24.7092L3.76122 18.3923C2.85659 17.4894 2.35986 16.2837 2.35986 15C2.35986 13.7164 2.85659 12.5125 3.76122 11.6095ZM21.0959 13.6946L14.7781 7.37595C14.4318 7.02965 13.9677 6.83928 13.471 6.83928C12.9742 6.83928 12.5102 7.02965 12.1639 7.37595L5.84602 13.6946C5.49976 14.0409 5.30941 14.5051 5.30941 15.0018C5.30941 15.4986 5.49976 15.9628 5.84602 16.3091L12.1639 22.6259C12.5102 22.9722 12.9742 23.1626 13.471 23.1626C13.9677 23.1626 14.4318 22.9722 14.7781 22.6259L21.0959 16.3091C21.4422 15.9628 21.6325 15.4986 21.6325 15.0018C21.6325 14.5051 21.4422 14.0409 21.0959 13.6946Z" fill="url(#paint0_linear_639_13249)"/>
<mask id="mask0_639_13249" style="mask-type:alpha" maskUnits="userSpaceOnUse" x="2" y="3" width="23" height="24">
<path d="M3.76122 11.6095L10.0791 5.29089C11.9482 3.42159 14.992 3.42159 16.8629 5.29089L23.1807 11.6077C24.0835 12.5106 24.5821 13.7164 24.5821 15C24.5821 16.2837 24.0854 17.4876 23.1807 18.3923L16.8629 24.7092C14.992 26.5785 11.95 26.5785 10.0791 24.7092L3.76122 18.3923C2.85659 17.4894 2.35986 16.2837 2.35986 15C2.35986 13.7164 2.85659 12.5125 3.76122 11.6095ZM21.0959 13.6946L14.7781 7.37595C14.4318 7.02965 13.9677 6.83928 13.471 6.83928C12.9742 6.83928 12.5102 7.02965 12.1639 7.37595L5.84602 13.6946C5.49976 14.0409 5.30941 14.5051 5.30941 15.0018C5.30941 15.4986 5.49976 15.9628 5.84602 16.3091L12.1639 22.6259C12.5102 22.9722 12.9742 23.1626 13.471 23.1626C13.9677 23.1626 14.4318 22.9722 14.7781 22.6259L21.0959 16.3091C21.4422 15.9628 21.6325 15.4986 21.6325 15.0018C21.6325 14.5051 21.4422 14.0409 21.0959 13.6946Z" fill="url(#paint1_linear_639_13249)"/>
</mask>
<g mask="url(#mask0_639_13249)">
<path d="M14.5608 22.7792L12.3781 24.9332C11.8686 25.4644 11.0329 25.537 10.4564 25.0782C10.451 25.0746 10.4455 25.0692 10.4401 25.0655C10.4401 25.0655 9.50646 24.2261 9.18377 23.8526C9.01698 23.6604 8.16675 22.8119 7.37996 22.0304C6.67838 21.3342 6.86692 20.1557 7.7516 19.7133L7.83318 19.6734C8.38973 19.396 9.06049 19.5048 9.49921 19.9435L12.0245 22.4692C12.0245 22.4692 12.5303 23.0784 13.3026 23.1219C14.0749 23.1654 14.5608 22.7792 14.5608 22.7792Z" fill="url(#paint2_linear_639_13249)"/>
<path d="M12.8949 6.94668L12.6682 7.01903L14.5935 5.06529C15.0992 4.53587 15.9314 4.46334 16.5024 4.92024C16.5078 4.92387 16.5133 4.92931 16.5187 4.93294C16.5187 4.93294 17.4088 5.81047 17.7551 6.15859C17.9436 6.34896 18.7776 7.17936 19.5589 7.95718C20.2569 8.64979 20.0683 9.82467 19.1909 10.2653L19.1111 10.3051C18.5582 10.5825 17.8911 10.4738 17.4451 10.0567L14.9107 7.5728C14.9107 7.5728 14.443 6.91284 13.6779 6.86932C13.3475 6.84901 13.3209 6.83652 13.1519 6.88244L12.8949 6.94668Z" fill="url(#paint3_linear_639_13249)"/>
</g>
<path d="M54.2896 5.87476C53.8111 5.87476 53.3954 6.04829 53.0503 6.39344C52.7071 6.73669 52.5317 7.15431 52.5317 7.63295C52.5317 8.11159 52.7052 8.5273 53.0503 8.87245C53.3935 9.2157 53.8111 9.39114 54.2896 9.39114C54.7682 9.39114 55.1838 9.21761 55.527 8.87245C55.8702 8.52921 56.0456 8.11159 56.0456 7.63295C56.0456 7.15431 55.8721 6.7386 55.527 6.39344C55.1857 6.05019 54.7682 5.87476 54.2896 5.87476Z" fill="#2C2C42"/>
<path d="M54.2897 10.4666C53.8836 10.4666 53.5385 10.6 53.2639 10.8651C52.9856 11.134 52.8445 11.4849 52.8445 11.9101V21.1549C52.8445 21.5649 52.9837 21.912 53.2582 22.1866C53.5328 22.4612 53.8798 22.6004 54.2897 22.6004C54.7149 22.6004 55.0676 22.4593 55.3364 22.1808C55.6014 21.9062 55.7349 21.5611 55.7349 21.1549V11.912C55.7349 11.4887 55.5995 11.1397 55.3307 10.8708C55.0638 10.6019 54.7129 10.4666 54.2897 10.4666Z" fill="#2C2C42"/>
<path d="M62.2366 21.1779V13.4395H63.617C64.0059 13.4395 64.332 13.3213 64.5837 13.0886C64.8411 12.8503 64.9783 12.5375 64.9783 12.1829C64.9783 11.8015 64.843 11.4735 64.5837 11.2351C64.3301 11.0025 64.0059 10.8842 63.617 10.8842H62.2366V8.27555C62.2366 7.86747 62.1012 7.52422 61.8324 7.25534C61.5635 6.98837 61.2203 6.85107 60.8123 6.85107C60.4043 6.85107 60.0611 6.98647 59.7923 7.25534C59.5253 7.52422 59.3881 7.86747 59.3881 8.27555V10.8823H58.818C58.429 10.8823 58.103 11.0006 57.8494 11.2332C57.592 11.4716 57.4547 11.7996 57.4547 12.1809C57.4547 12.5356 57.5901 12.8503 57.8494 13.0867C58.1011 13.3194 58.4271 13.4376 58.818 13.4376H59.3881V21.176C59.3881 21.9616 60.0249 22.6004 60.8123 22.6004C61.5998 22.6023 62.2366 21.9635 62.2366 21.1779Z" fill="#2C2C42"/>
<path d="M72.5096 13.0259C73.0187 13.0297 73.4782 12.7036 73.6193 12.2154C73.686 11.9828 73.7165 11.6948 73.6803 11.3382C73.564 10.1883 72.4619 10.3104 72.4619 10.3104C71.7164 10.3104 71.0339 10.4934 70.3761 10.7928C69.9947 10.9664 69.6458 11.1799 69.3312 11.4317C69.1787 10.8138 68.6982 10.4687 67.9584 10.4687C67.5218 10.4687 67.171 10.5983 66.9174 10.852C66.6638 11.1056 66.5342 11.4564 66.5342 11.8931V21.1799C66.5342 21.6337 66.6657 21.9884 66.9212 22.2363C67.1748 22.4804 67.5237 22.6044 67.9565 22.6044C68.4103 22.6044 68.765 22.4747 69.0128 22.2154C69.2569 21.9617 69.3789 21.6128 69.3789 21.1799V15.112C69.3789 14.458 69.6268 13.9545 70.1396 13.5712C70.6773 13.167 71.419 12.9763 72.3247 13.022C72.3704 13.0239 72.4372 13.0259 72.5096 13.0259Z" fill="#2C2C42"/>
<path d="M85.4138 13.413C84.8761 12.4786 84.1382 11.733 83.2173 11.1952C82.2964 10.6575 81.2554 10.3848 80.1247 10.3848C78.996 10.3848 77.9493 10.6575 77.0131 11.1952C76.0769 11.733 75.3333 12.4805 74.8033 13.4168C74.2732 14.3512 74.0044 15.4038 74.0044 16.5461C74.0044 17.6864 74.2542 18.7352 74.7442 19.6658C75.238 20.6021 75.9282 21.3477 76.7938 21.8817C77.6613 22.4156 78.6414 22.6864 79.7072 22.6864C80.5652 22.6864 81.3755 22.5052 82.1172 22.1505C82.5633 21.937 82.9714 21.67 83.3393 21.3515C83.3737 21.6872 83.509 21.9751 83.7455 22.2116C84.02 22.4862 84.367 22.6254 84.7769 22.6254C85.1869 22.6254 85.5339 22.4862 85.8084 22.2116C86.083 21.937 86.2222 21.5899 86.2222 21.1799V16.5461C86.2241 15.4019 85.9514 14.3474 85.4138 13.413ZM83.4175 16.5442C83.4175 17.2097 83.2726 17.8161 82.9866 18.3443C82.7025 18.8687 82.3059 19.2882 81.8064 19.5895C81.3088 19.8908 80.7444 20.0434 80.1266 20.0434C79.5089 20.0434 78.9426 19.8908 78.4469 19.5895C77.9473 19.2863 77.545 18.8668 77.2552 18.3405C76.9635 17.8123 76.8148 17.2078 76.8148 16.5422C76.8148 15.8767 76.9635 15.2684 77.2552 14.7326C77.545 14.2005 77.9454 13.7772 78.4469 13.4759C78.9445 13.1746 79.5089 13.0221 80.1266 13.0221C80.7444 13.0221 81.3088 13.1746 81.8064 13.4759C82.304 13.7772 82.7006 14.1986 82.9847 14.7307C83.2726 15.2684 83.4175 15.8786 83.4175 16.5442Z" fill="#2C2C42"/>
<path d="M48.6823 11.6297C47.8681 10.764 46.7928 10.3235 45.4829 10.3235C44.6688 10.3235 43.9137 10.4818 43.2426 10.7964C42.7316 11.0348 42.009 11.6088 41.6124 12.0016L41.5743 12.0378C41.1777 11.6469 40.3369 11.0386 39.8202 10.7983C39.149 10.4856 38.394 10.3254 37.5799 10.3254C36.27 10.3254 35.1927 10.764 34.3805 11.6316C33.574 12.4917 33.1641 13.6911 33.1641 15.1995V21.1415C33.1641 21.5477 33.2975 21.8928 33.5626 22.1674C33.8314 22.4459 34.1841 22.587 34.6093 22.587C35.0192 22.587 35.3662 22.4478 35.6408 22.1732C35.9154 21.8986 36.0545 21.5515 36.0545 21.1434V15.1957C36.0545 14.4577 36.2319 13.9028 36.5808 13.5424C36.9316 13.1801 37.393 13.0046 37.9974 13.0046C38.6113 13.0046 39.0995 13.2087 39.4922 13.6301C39.8907 14.0592 40.0852 14.5988 40.0852 15.2796V21.1377C40.0852 21.5439 40.2206 21.889 40.4837 22.1636C40.7525 22.442 41.1033 22.5831 41.5285 22.5831C41.5304 22.5831 41.5323 22.5831 41.5342 22.5831C41.5361 22.5831 41.5381 22.5831 41.54 22.5831C41.9651 22.5831 42.3179 22.442 42.5848 22.1636C42.8498 21.889 42.9833 21.5439 42.9833 21.1377V15.2796C42.9833 14.5988 43.1778 14.0592 43.5763 13.6301C43.9671 13.2087 44.4552 13.0046 45.0711 13.0046C45.6736 13.0046 46.1369 13.1801 46.4877 13.5424C46.8366 13.9028 47.0139 14.4596 47.0139 15.1957V21.1377C47.0139 21.5477 47.1531 21.8947 47.4277 22.1674C47.7022 22.442 48.0493 22.5812 48.4592 22.5812C48.8844 22.5812 49.2352 22.4401 49.5059 22.1617C49.771 21.8871 49.9044 21.542 49.9044 21.1358V15.1957C49.8987 13.6892 49.4888 12.4898 48.6823 11.6297Z" fill="#2C2C42"/>
<defs>
<linearGradient id="paint0_linear_639_13249" x1="13.7411" y1="26.1074" x2="13.1993" y2="3.89412" gradientUnits="userSpaceOnUse">
<stop offset="0.00534759" stop-color="#8D65F5"/>
<stop offset="0.307292" stop-color="#6665F5"/>
<stop offset="0.9997" stop-color="#01D0FA"/>
</linearGradient>
<linearGradient id="paint1_linear_639_13249" x1="13.4703" y1="27.4297" x2="13.4703" y2="5.20609" gradientUnits="userSpaceOnUse">
<stop stop-color="#8D65F5"/>
<stop offset="0.00828621" stop-color="#8A65F5"/>
<stop offset="0.0832" stop-color="#7665F5"/>
<stop offset="0.158" stop-color="#6A65F5"/>
<stop offset="0.2322" stop-color="#6665F5"/>
<stop offset="0.3772" stop-color="#4686F7"/>
<stop offset="0.547" stop-color="#28A6F8"/>
<stop offset="0.7111" stop-color="#13BDF9"/>
<stop offset="0.8653" stop-color="#05CBFA"/>
<stop offset="0.9997" stop-color="#01D0FA"/>
<stop offset="1" stop-color="#01D0FA"/>
</linearGradient>
<linearGradient id="paint2_linear_639_13249" x1="13.2082" y1="24.6608" x2="7.75173" y2="19.1971" gradientUnits="userSpaceOnUse">
<stop stop-color="#2C2864"/>
<stop offset="1" stop-color="#4C81F7" stop-opacity="0"/>
</linearGradient>
<linearGradient id="paint3_linear_639_13249" x1="13.5817" y1="5.00209" x2="18.9966" y2="10.4243" gradientUnits="userSpaceOnUse">
<stop stop-color="#005567"/>
<stop offset="1" stop-color="#09C8FA" stop-opacity="0"/>
</linearGradient>
</defs>
</svg>
