<svg width="17" height="19" viewBox="0 0 17 19" fill="none" xmlns="http://www.w3.org/2000/svg">
<path d="M13.6366 10.183H9.41994C9.13661 12.7663 7.53661 14.9496 5.30327 16.058C5.27827 17.5663 3.91994 18.7496 2.34494 18.4746C1.34494 18.2996 0.519939 17.4746 0.344939 16.4746C0.0616062 14.8913 1.26994 13.5163 2.80327 13.5163C3.59494 13.5163 4.28661 13.8913 4.74494 14.4663C6.32827 13.608 7.46161 12.0413 7.72827 10.183H5.14494C4.74494 11.2996 3.59494 12.0496 2.29494 11.7996C1.31161 11.608 0.519939 10.7996 0.336606 9.81629C0.0532728 8.23295 1.26994 6.84962 2.80327 6.84962C3.88661 6.84962 4.80327 7.54962 5.15327 8.51629H7.73661C7.46994 6.65795 6.32827 5.09962 4.74494 4.23295C4.21161 4.89962 3.35327 5.29962 2.40327 5.14962C1.37827 4.99129 0.519939 4.15795 0.344939 3.13295C0.0699395 1.55795 1.27827 0.182953 2.80327 0.182953C4.16994 0.182953 5.26994 1.27462 5.29494 2.64129C7.52827 3.74962 9.12827 5.93295 9.41161 8.51629H13.6366V7.02462C13.6366 6.64962 14.0866 6.46629 14.3449 6.73295L16.6699 9.05795C16.8366 9.22462 16.8366 9.48295 16.6699 9.64962L14.3449 11.9746C14.0866 12.233 13.6366 12.0496 13.6366 11.6746V10.183Z" fill="#FBFAFF"/>
</svg>
