<svg width="13" height="19" viewBox="0 0 13 19" fill="none" xmlns="http://www.w3.org/2000/svg">
<path d="M9.97013 0.182945H3.30347C1.92013 0.182945 0.803467 1.29961 0.803467 2.68295V16.0163C0.803467 17.3996 1.92013 18.5163 3.30347 18.5163H9.97013C11.3535 18.5163 12.4701 17.3996 12.4701 16.0163V2.68295C12.4701 1.29961 11.3535 0.182945 9.97013 0.182945ZM7.8868 16.8496H5.3868C5.15347 16.8496 4.97013 16.6663 4.97013 16.4329C4.97013 16.1996 5.15347 16.0163 5.3868 16.0163H7.8868C8.12013 16.0163 8.30347 16.1996 8.30347 16.4329C8.30347 16.6663 8.12013 16.8496 7.8868 16.8496ZM10.8035 14.3496H2.47013V2.68295H10.8035V14.3496Z" fill="#FBFAFF"/>
</svg>
