<svg width="32" height="32" viewBox="0 0 32 32" fill="none" xmlns="http://www.w3.org/2000/svg">
<circle cx="16" cy="16" r="15" fill="#D9D9D9" stroke="#F6F6F6" stroke-width="2"/>
<path d="M20 13.3332C21.1046 13.3332 22 12.4378 22 11.3332C22 10.2286 21.1046 9.33319 20 9.33319C18.8954 9.33319 18 10.2286 18 11.3332C18 12.4378 18.8954 13.3332 20 13.3332Z" fill="#81898F"/>
<path d="M12 17.9999C13.1046 17.9999 14 17.1044 14 15.9999C14 14.8953 13.1046 13.9999 12 13.9999C10.8954 13.9999 10 14.8953 10 15.9999C10 17.1044 10.8954 17.9999 12 17.9999Z" fill="#81898F"/>
<path d="M20 22.6665C21.1046 22.6665 22 21.7711 22 20.6665C22 19.562 21.1046 18.6665 20 18.6665C18.8954 18.6665 18 19.562 18 20.6665C18 21.7711 18.8954 22.6665 20 22.6665Z" fill="#81898F"/>
<path d="M13.7267 17.0065L18.28 19.6599M18.2733 12.3399L13.7267 14.9932M22 11.3332C22 12.4378 21.1046 13.3332 20 13.3332C18.8954 13.3332 18 12.4378 18 11.3332C18 10.2286 18.8954 9.33319 20 9.33319C21.1046 9.33319 22 10.2286 22 11.3332ZM14 15.9999C14 17.1044 13.1046 17.9999 12 17.9999C10.8954 17.9999 10 17.1044 10 15.9999C10 14.8953 10.8954 13.9999 12 13.9999C13.1046 13.9999 14 14.8953 14 15.9999ZM22 20.6665C22 21.7711 21.1046 22.6665 20 22.6665C18.8954 22.6665 18 21.7711 18 20.6665C18 19.562 18.8954 18.6665 20 18.6665C21.1046 18.6665 22 19.562 22 20.6665Z" stroke="#81898F" stroke-width="1.6" stroke-linecap="round" stroke-linejoin="round"/>
</svg>
