<svg width="14" height="12" viewBox="0 0 14 12" fill="none" xmlns="http://www.w3.org/2000/svg">
<path d="M12.3333 0.666016H1.66665C0.933313 0.666016 0.333313 1.26602 0.333313 1.99935V9.99935C0.333313 10.7327 0.933313 11.3327 1.66665 11.3327H12.3333C13.0666 11.3327 13.6666 10.7327 13.6666 9.99935V1.99935C13.6666 1.26602 13.0666 0.666016 12.3333 0.666016ZM4.33331 5.33268H1.66665V1.99935H4.33331V5.33268ZM8.33331 5.33268H5.66665V1.99935H8.33331V5.33268ZM12.3333 5.33268H9.66665V1.99935H12.3333V5.33268ZM4.33331 9.99935H1.66665V6.66602H4.33331V9.99935ZM8.33331 9.99935H5.66665V6.66602H8.33331V9.99935ZM12.3333 9.99935H9.66665V6.66602H12.3333V9.99935Z" fill="#424967"/>
</svg>
