<svg width="12" height="10" viewBox="0 0 12 10" fill="none" xmlns="http://www.w3.org/2000/svg">
<path d="M10.667 0.333984H1.33366C0.691992 0.333984 0.166992 0.858984 0.166992 1.50065V8.50065C0.166992 9.14232 0.691992 9.66732 1.33366 9.66732H10.667C11.3087 9.66732 11.8337 9.14232 11.8337 8.50065V1.50065C11.8337 0.858984 11.3087 0.333984 10.667 0.333984ZM3.66699 4.41732H1.33366V1.50065H3.66699V4.41732ZM7.16699 4.41732H4.83366V1.50065H7.16699V4.41732ZM10.667 4.41732H8.33366V1.50065H10.667V4.41732ZM3.66699 8.50065H1.33366V5.58398H3.66699V8.50065ZM7.16699 8.50065H4.83366V5.58398H7.16699V8.50065ZM10.667 8.50065H8.33366V5.58398H10.667V8.50065Z" fill="#7839EE"/>
</svg>
