<svg width="14" height="14" viewBox="0 0 14 14" fill="none" xmlns="http://www.w3.org/2000/svg">
<g clip-path="url(#clip0_2315_14645)">
<path d="M2.15723 3.39343H3.27997M3.27997 3.39343H12.2619M3.27997 3.39343V11.2526C3.27997 11.5504 3.39826 11.836 3.60881 12.0465C3.81937 12.2571 4.10494 12.3754 4.40271 12.3754H10.0164C10.3142 12.3754 10.5998 12.2571 10.8103 12.0465C11.0209 11.836 11.1392 11.5504 11.1392 11.2526V3.39343H3.27997ZM4.96408 3.39343V2.27069C4.96408 1.97292 5.08237 1.68735 5.29292 1.47679C5.50348 1.26624 5.78905 1.14795 6.08682 1.14795H8.3323C8.63007 1.14795 8.91565 1.26624 9.1262 1.47679C9.33676 1.68735 9.45505 1.97292 9.45505 2.27069V3.39343M6.08682 6.20029V9.56851M8.3323 6.20029V9.56851" stroke="#4A4A4A" stroke-width="1.26308" stroke-linecap="round" stroke-linejoin="round"/>
</g>
<defs>
<clipPath id="clip0_2315_14645">
<rect width="13.4729" height="13.4729" fill="white" transform="translate(0.472656 0.0253906)"/>
</clipPath>
</defs>
</svg>
