<svg width="14" height="13" viewBox="0 0 14 13" fill="none" xmlns="http://www.w3.org/2000/svg">
<path fill-rule="evenodd" clip-rule="evenodd" d="M6.80681 0.1C6.67348 -0.0333333 6.46681 -0.0333333 6.33348 0.1L5.00014 1.44H8.14681L6.80681 0.1ZM6.32681 12.5667C6.46014 12.7 6.66681 12.7 6.80014 12.5667L8.11348 11.2467H5.00681L6.32681 12.5667ZM7.10681 9.38C6.96014 9.75333 7.23348 10.1533 7.63348 10.1533C7.86681 10.1533 8.08014 10.0067 8.16681 9.78L8.64014 8.51333H12.0468L12.5201 9.78C12.6068 10 12.8201 10.1467 13.0535 10.1467C13.4535 10.1467 13.7268 9.74667 13.5801 9.37333L11.0868 3.02C10.9668 2.71333 10.6668 2.51333 10.3401 2.51333C10.0135 2.51333 9.71348 2.71333 9.59348 3.02L7.10681 9.38ZM10.3468 3.97333L11.6401 7.42667H9.05348L10.3468 3.97333ZM5.48632 9.09319H1.93298L5.74632 3.56652C6.05298 3.12652 5.73298 2.51986 5.19965 2.51986H0.87965C0.586317 2.51986 0.352984 2.75986 0.352984 3.05319V3.05986C0.352984 3.35319 0.592984 3.59319 0.87965 3.59319H4.27298L0.452984 9.11319C0.146317 9.55319 0.466317 10.1599 0.99965 10.1599H5.47965C5.77298 10.1599 6.00632 9.91986 6.00632 9.63319C6.01965 9.33319 5.77965 9.09319 5.48632 9.09319Z" fill="#344054"/>
</svg>
